<svg
   version="1.1"
   width="64"
   height="64"
   id="svg2">
  <defs
     id="defs6">
    <clipPath
       id="clipPath3797">
      <path
         d="M 32,32 4,4 60,4 z"
         id="path3799"
         style="fill:none;stroke:#000000;stroke-width:1px;stroke-linecap:butt;stroke-linejoin:miter;stroke-opacity:1" />
    </clipPath>
  </defs>
  <path
     d="M 4,4 60,4 60,60 4,60 z"
     transform="matrix(0.92857143,0,0,0.92857143,2.2857143,0.28571424)"
     clip-path="url(#clipPath3797)"
     id="rect2989"
     style="fill:#ac4142;fill-opacity:1;stroke:none" />
  <path
     d="M 4,4 60,4 60,60 4,60 z"
     transform="matrix(0.92857143,0,0,-0.92857143,2.2857143,63.714286)"
     clip-path="url(#clipPath3797)"
     id="path3807"
     style="fill:#ac4142;fill-opacity:1;stroke:none" />
  <path
     d="M 4,4 60,4 60,60 4,60 z"
     transform="matrix(0,0.92857143,0.92857143,0,0.28571429,2.2857142)"
     clip-path="url(#clipPath3797)"
     id="path3809"
     style="fill:#ac4142;fill-opacity:1;stroke:none" />
  <path
     d="M 4,4 60,4 60,60 4,60 z"
     transform="matrix(0,0.92857143,-0.92857143,0,63.714286,2.2857142)"
     clip-path="url(#clipPath3797)"
     id="path3811"
     style="fill:#ac4142;fill-opacity:1;stroke:none" />
</svg>
